IKResults
version=1
nRows=16
nColumns=40
inDegrees=yes

Units are S.I. units (second, meters, Newtons, ...)
Angles are in degrees.

endheader
time	pelvis_tilt	pelvis_list	pelvis_rotation	pelvis_tx	pelvis_ty	pelvis_tz	hip_flexion_r	hip_adduction_r	hip_rotation_r	knee_angle_r	knee_angle_r_beta	ankle_angle_r	subtalar_angle_r	mtp_angle_r	hip_flexion_l	hip_adduction_l	hip_rotation_l	knee_angle_l	knee_angle_l_beta	ankle_angle_l	subtalar_angle_l	mtp_angle_l	lumbar_extension	lumbar_bending	lumbar_rotation	arm_flex_r	arm_add_r	arm_rot_r	elbow_flex_r	pro_sup_r	wrist_flex_r	wrist_dev_r	arm_flex_l	arm_add_l	arm_rot_l	elbow_flex_l	pro_sup_l	wrist_flex_l	wrist_dev_l
      0.55000000	      0.61879916	      3.34785669	     -2.95774347	      0.07472933	      0.90026613	     -1.00867822	     -8.44499294	     -3.77031931	     -3.19509787	    -34.33217909	     -0.59920956	      2.73108534	    -15.08230287	      2.98800290	     20.33127618	     -1.86933712	     15.57413178	    -17.77047034	     -0.31015322	      2.11953251	     10.90648184	     -1.14098758	     -2.28868008	     -4.43273033	      0.29660454	      7.78904982	    -13.06392260	     -3.29429060	     42.14053681	     89.95437384	      0.00000000	      0.00000000	    -15.64980252	      4.85372159	     18.48355292	      8.45998649	     89.95437384	      0.00000000	      0.00000000
      0.56000000	      0.59530343	      3.66622670	     -2.87487299	      0.08660578	      0.90217568	     -1.01023517	     -7.12994699	     -4.51610203	     -3.80268066	    -37.32955581	     -0.65152366	     -1.06420014	    -15.90831277	      2.64919544	     19.54788513	     -2.59858817	     13.98848502	    -17.70798756	     -0.30906269	      2.30310803	     11.60301169	     -1.33934585	     -2.14847801	     -4.74991570	     -0.01152846	      7.40769514	    -12.71332817	     -3.37774978	     41.21692503	     89.95437384	      0.00000000	      0.00000000	    -15.39921005	      4.99945520	     17.05371116	      8.77851358	     89.95437384	      0.00000000	      0.00000000
      0.57000000	      0.84697913	      3.79889800	     -2.77140258	      0.09880535	      0.90449599	     -1.01196137	     -6.12239503	     -5.18082848	     -4.54585570	    -40.16354999	     -0.70098619	     -4.51854342	    -15.94589892	      2.95752449	     18.50863472	     -2.96579391	     13.57888770	    -17.83417178	     -0.31126502	      2.90135065	     10.86275124	     -1.52647214	     -2.28707861	     -4.82637318	     -0.40526028	      7.09967394	    -12.52554937	     -3.09604738	     40.12395514	     89.95437384	      0.00000000	      0.00000000	    -14.96148674	      5.05679774	     16.50187018	      8.90993727	     89.95437384	      0.00000000	      0.00000000
      0.58000000	      0.98705190	      3.94875158	     -2.76844458	      0.11059064	      0.90653739	     -1.01346720	     -4.75172924	     -5.81356332	     -4.89035429	    -43.23512958	     -0.75459536	     -7.29357117	    -16.37570399	      3.30521124	     17.49272949	     -3.33267053	     13.37420931	    -17.75219244	     -0.30983421	      3.27709442	     10.49733521	     -1.65530179	     -2.34479102	     -4.92146779	     -0.66854923	      6.75063714	    -12.37863913	     -2.73465884	     39.09239497	     89.95437384	      0.00000000	      0.00000000	    -14.55846134	      5.15248631	     15.77750398	      9.37078527	     89.95437384	      0.00000000	      0.00000000
      0.59000000	      1.09579825	      4.04645195	     -2.83574054	      0.12208558	      0.90832429	     -1.01479004	     -3.18481278	     -6.40693955	     -5.11732233	    -46.42696200	     -0.81030335	     -9.83035437	    -16.78569073	      3.74141243	     16.44552944	     -3.60834681	     13.50093164	    -17.51936883	     -0.30577067	      3.73165599	     10.23636115	     -1.75301966	     -2.39512209	     -4.95423583	     -0.89266063	      6.43323100	    -12.22481753	     -2.37592398	     38.03540562	     89.95437384	      0.00000000	      0.00000000	    -14.13394538	      5.26763385	     15.07603398	      9.96346961	     89.95437384	      0.00000000	      0.00000000
      0.60000000	      0.75869519	      4.27229515	     -2.99918839	      0.13290398	      0.90902653	     -1.01610395	     -0.80371643	     -7.08194722	     -5.02303144	    -49.95294925	     -0.87184344	    -12.20581886	    -17.24031940	      5.25160197	     15.92198799	     -4.02604960	     13.59536347	    -17.22183005	     -0.30057764	      4.10562527	     10.48942128	     -1.87616277	     -1.95543037	     -5.07417366	     -0.91231063	      6.00293100	    -12.13791447	     -1.99830048	     37.10568774	     89.95437384	      0.00000000	      0.00000000	    -13.83402862	      5.49814704	     13.39692788	     10.87422127	     89.95437384	      0.00000000	      0.00000000
      0.61000000	      1.10047254	      4.28608904	     -3.07729574	      0.14414136	      0.91059172	     -1.01726998	      0.55393689	     -7.48826935	     -5.03331033	    -52.80113682	     -0.92155369	    -14.29823660	    -17.51553385	      5.71444876	     14.53811956	     -4.23127501	     13.89267043	    -16.79930343	     -0.29320316	      4.77703744	      9.82072387	     -2.03139030	     -2.30350590	     -5.01762896	     -1.08061727	      5.67457973	    -12.02693706	     -1.70372578	     36.10745330	     89.95437384	      0.00000000	      0.00000000	    -13.19612004	      5.67528468	     13.12211521	     11.48930252	     89.95437384	      0.00000000	      0.00000000
      0.62000000	      1.00253612	      4.58919478	     -3.39674998	      0.15487296	      0.91119772	     -1.01827011	      2.75099698	     -8.06334363	     -4.60093789	    -55.94335064	     -0.97639566	    -15.83419937	    -17.65977099	     12.06694276	     13.66578410	     -4.65522142	     14.65381810	    -16.30561712	     -0.28458671	      5.08091415	      9.54585186	     -2.26354233	     -2.12369224	     -5.22862369	     -1.02999992	      5.23160676	    -11.93390230	     -1.28286576	     35.27806621	     89.95437384	      0.00000000	      0.00000000	    -12.74886379	      5.94948475	     12.10826552	     12.42781690	     89.95437384	      0.00000000	      0.00000000
      0.63000000	      1.30298356	      4.71379628	     -3.55753339	      0.16610860	      0.91224169	     -1.01924690	      4.16207894	     -8.54472780	     -4.51426604	    -58.40626958	     -1.01938171	    -17.01475630	    -18.20906639	     12.43341417	     12.28962277	     -4.92059045	     15.35840347	    -15.81876816	     -0.27608959	      5.77931049	      8.85358073	     -2.42850026	     -2.37150324	     -5.28480953	     -1.11687710	      4.79396871	    -11.81168965	     -1.02532510	     34.34039940	     89.95437384	      0.00000000	      0.00000000	    -12.07193134	      6.17460375	     11.95399105	     13.09667411	     89.95437384	      0.00000000	      0.00000000
      0.64000000	      1.62038629	      4.87555531	     -3.72438853	      0.17714669	      0.91321186	     -1.02014270	      5.51426636	     -8.96499913	     -4.32190917	    -60.63884028	     -1.05834742	    -16.59249480	    -18.53033838	     12.69216157	     10.97251380	     -5.22601804	     15.91271023	    -15.47155402	     -0.27002956	      6.36584616	      8.16432109	     -2.57079989	     -2.64403647	     -5.39686887	     -1.21373672	      4.35335446	    -11.65054906	     -0.78423273	     33.37735850	     89.95437384	      0.00000000	      0.00000000	    -11.31566498	      6.46363967	     11.71319409	     13.70546668	     89.95437384	      0.00000000	      0.00000000
      0.65000000	      1.91834220	      4.93776028	     -3.81939972	      0.18808060	      0.91420385	     -1.02097649	      6.82165664	     -9.22639098	     -4.21527230	    -62.55288258	     -1.09175376	    -15.15345117	    -18.63577350	     12.88377124	      9.68240841	     -5.41986531	     16.36162705	    -15.12298029	     -0.26394580	      6.84425710	      7.54035174	     -2.67213040	     -2.90081135	     -5.42233445	     -1.33656181	      3.88608775	    -11.46291230	     -0.77940679	     32.39009216	     89.95437384	      0.00000000	      0.00000000	    -10.47308486	      6.76369659	     11.50844088	     14.28524480	     89.95437384	      0.00000000	      0.00000000
      0.66000000	      2.23236977	      4.68030202	     -3.62203006	      0.19872174	      0.91535971	     -1.02194985	      7.95290085	     -9.18887064	     -4.54210315	    -64.06159951	     -1.11808584	    -14.05018422	    -18.75540553	     12.72052208	      8.49417259	     -5.25298460	     16.62911139	    -15.01731981	     -0.26210168	      7.09993473	      7.27261476	     -2.68186704	     -3.28936258	     -5.11131786	     -1.72479195	      3.31155483	    -11.32738088	     -0.74207222	     31.62414045	     89.95437384	      0.00000000	      0.00000000	     -9.48407660	      7.06355762	     11.39653417	     14.76641612	     89.95437384	      0.00000000	      0.00000000
      0.67000000	      2.45311392	      4.74680952	     -3.70287236	      0.20952897	      0.91635321	     -1.02249561	      9.21185191	     -9.29814761	     -4.27193537	    -65.38405493	     -1.14116704	    -10.40787525	    -18.71148819	     12.62122597	      7.19275272	     -5.50191727	     16.66933720	    -14.44684011	     -0.25214493	      7.77308061	      6.55277069	     -2.84520732	     -3.41912491	     -5.19967559	     -1.84485838	      2.92439056	    -10.99946980	     -0.82382794	     30.25564529	     89.95437384	      0.00000000	      0.00000000	     -8.44347733	      7.43421967	     11.29918814	     15.06604867	     89.95437384	      0.00000000	      0.00000000
      0.68000000	      2.67585503	      4.62335049	     -3.61657178	      0.21998025	      0.91739193	     -1.02308941	     10.43539601	     -9.10228028	     -4.16028546	    -66.37939440	     -1.15853899	     -9.04961066	    -18.62570338	     12.94846828	      5.95942096	     -5.53384679	     16.68620096	    -13.96186275	     -0.24368047	      8.12094719	      6.17583350	     -2.93073637	     -3.65239385	     -5.07714513	     -2.11166319	      2.41052168	    -10.71726311	     -1.03307074	     29.21372517	     89.95437384	      0.00000000	      0.00000000	     -7.31404651	      7.78649166	     11.27558339	     15.35538114	     89.95437384	      0.00000000	      0.00000000
      0.69000000	      2.85080629	      4.37625397	     -3.41758331	      0.23046102	      0.91837331	     -1.02377867	     11.63403140	     -8.79275221	     -4.21084118	    -67.06554539	     -1.17051458	     -7.41113279	    -18.61361654	     12.98742134	      4.86466062	     -5.41061496	     16.59998358	    -13.66796975	     -0.23855107	      8.53355119	      5.89741159	     -3.00095527	     -3.84925893	     -4.81487651	     -2.40928015	      1.78542775	    -10.56606594	     -0.97374280	     28.26018914	     89.95437384	      0.00000000	      0.00000000	     -6.08289528	      8.13241452	     11.37857476	     15.63381536	     89.95437384	      0.00000000	      0.00000000
      0.70000000	      2.96579458	      4.09289325	     -3.21057760	      0.24080962	      0.91920035	     -1.02434323	     12.82757805	     -8.36638147	     -4.24701940	    -67.44718465	     -1.17717544	     -6.17771350	    -18.52126379	     12.99068475	      3.82229565	     -5.23963694	     16.41087731	    -13.33959338	     -0.23281983	      8.93333004	      5.60404160	     -3.04699237	     -3.96913283	     -4.51208621	     -2.73761836	      1.18856919	    -10.40398141	     -0.95248546	     27.30133560	     89.95437384	      0.00000000	      0.00000000	     -4.86369527	      8.48476916	     11.27514505	     15.80505930	     89.95437384	      0.00000000	      0.00000000
